<mxfile host="app.diagrams.net" modified="2021-02-08T08:11:26.405Z" agent="5.0 (Windows NT 10.0; Win64; x64) AppleWebKit/537.36 (KHTML, like Gecko) Chrome/88.0.4324.150 Safari/537.36 Edg/88.0.705.63" etag="gujrniumi0zUnYvXCimL" version="14.2.9" type="github">
  <diagram id="C5RBs43oDa-KdzZeNtuy" name="Page-1">
    <mxGraphModel dx="2031" dy="2258" grid="0" gridSize="10" guides="0" tooltips="1" connect="0" arrows="0" fold="1" page="1" pageScale="1" pageWidth="827" pageHeight="1169" background="none" math="0" shadow="0">
      <root>
        <mxCell id="WIyWlLk6GJQsqaUBKTNV-0" />
        <mxCell id="WIyWlLk6GJQsqaUBKTNV-1" parent="WIyWlLk6GJQsqaUBKTNV-0" />
        <mxCell id="PGyBlTvzSVpYLUktHaig-2" value="DefaultSqlSessionFactory" style="rounded=1;whiteSpace=wrap;html=1;fillColor=#e1d5e7;strokeColor=#9673a6;" parent="WIyWlLk6GJQsqaUBKTNV-1" vertex="1">
          <mxGeometry x="631" y="90" width="150" height="30" as="geometry" />
        </mxCell>
        <mxCell id="PGyBlTvzSVpYLUktHaig-3" value="" style="rounded=1;whiteSpace=wrap;html=1;fillColor=#f5f5f5;strokeColor=#666666;fontColor=#333333;" parent="WIyWlLk6GJQsqaUBKTNV-1" vertex="1">
          <mxGeometry x="71" y="90" width="30" height="430" as="geometry" />
        </mxCell>
        <mxCell id="PGyBlTvzSVpYLUktHaig-4" value="开始执行" style="text;html=1;strokeColor=#d6b656;fillColor=#fff2cc;align=center;verticalAlign=middle;whiteSpace=wrap;rounded=0;" parent="WIyWlLk6GJQsqaUBKTNV-1" vertex="1">
          <mxGeometry x="50" y="130" width="70" height="20" as="geometry" />
        </mxCell>
        <mxCell id="PGyBlTvzSVpYLUktHaig-5" value="SqlSessionFactoryBuilder" style="rounded=1;whiteSpace=wrap;html=1;fillColor=#dae8fc;strokeColor=#6c8ebf;" parent="WIyWlLk6GJQsqaUBKTNV-1" vertex="1">
          <mxGeometry x="291" y="90" width="150" height="30" as="geometry" />
        </mxCell>
        <mxCell id="PGyBlTvzSVpYLUktHaig-6" value="DefaultSqlSession" style="rounded=1;whiteSpace=wrap;html=1;fillColor=#f8cecc;strokeColor=#b85450;" parent="WIyWlLk6GJQsqaUBKTNV-1" vertex="1">
          <mxGeometry x="1011" y="90" width="150" height="30" as="geometry" />
        </mxCell>
        <mxCell id="PGyBlTvzSVpYLUktHaig-7" value="" style="endArrow=none;dashed=1;html=1;strokeWidth=1;entryX=0.5;entryY=1;entryDx=0;entryDy=0;" parent="WIyWlLk6GJQsqaUBKTNV-1" source="PGyBlTvzSVpYLUktHaig-12" target="PGyBlTvzSVpYLUktHaig-5" edge="1">
          <mxGeometry width="50" height="50" relative="1" as="geometry">
            <mxPoint x="366" y="1100" as="sourcePoint" />
            <mxPoint x="631" y="310" as="targetPoint" />
          </mxGeometry>
        </mxCell>
        <mxCell id="PGyBlTvzSVpYLUktHaig-9" value="" style="endArrow=none;dashed=1;html=1;strokeWidth=1;entryX=0.5;entryY=1;entryDx=0;entryDy=0;" parent="WIyWlLk6GJQsqaUBKTNV-1" source="PGyBlTvzSVpYLUktHaig-37" edge="1">
          <mxGeometry width="50" height="50" relative="1" as="geometry">
            <mxPoint x="705.5" y="1100" as="sourcePoint" />
            <mxPoint x="705.5" y="120" as="targetPoint" />
          </mxGeometry>
        </mxCell>
        <mxCell id="PGyBlTvzSVpYLUktHaig-10" value="" style="endArrow=none;dashed=1;html=1;strokeWidth=1;entryX=0.5;entryY=1;entryDx=0;entryDy=0;" parent="WIyWlLk6GJQsqaUBKTNV-1" edge="1">
          <mxGeometry width="50" height="50" relative="1" as="geometry">
            <mxPoint x="1091" y="520" as="sourcePoint" />
            <mxPoint x="1091" y="120" as="targetPoint" />
          </mxGeometry>
        </mxCell>
        <mxCell id="PGyBlTvzSVpYLUktHaig-11" value="&lt;font style=&quot;font-size: 19px&quot; color=&quot;#ff3333&quot;&gt;&lt;b&gt;加载配置文件到开启回话的流程&lt;/b&gt;&lt;/font&gt;" style="text;html=1;strokeColor=none;fillColor=none;align=center;verticalAlign=middle;whiteSpace=wrap;rounded=0;" parent="WIyWlLk6GJQsqaUBKTNV-1" vertex="1">
          <mxGeometry x="51" y="40" width="365" height="20" as="geometry" />
        </mxCell>
        <mxCell id="PGyBlTvzSVpYLUktHaig-12" value="" style="rounded=1;whiteSpace=wrap;html=1;fillColor=#dae8fc;strokeColor=#6c8ebf;" parent="WIyWlLk6GJQsqaUBKTNV-1" vertex="1">
          <mxGeometry x="351" y="160" width="30" height="150" as="geometry" />
        </mxCell>
        <mxCell id="PGyBlTvzSVpYLUktHaig-13" value="" style="endArrow=none;dashed=1;html=1;strokeWidth=1;entryX=0.5;entryY=1;entryDx=0;entryDy=0;" parent="WIyWlLk6GJQsqaUBKTNV-1" target="PGyBlTvzSVpYLUktHaig-12" edge="1">
          <mxGeometry width="50" height="50" relative="1" as="geometry">
            <mxPoint x="366" y="520" as="sourcePoint" />
            <mxPoint x="366" y="120" as="targetPoint" />
          </mxGeometry>
        </mxCell>
        <mxCell id="PGyBlTvzSVpYLUktHaig-21" value="" style="endArrow=classic;html=1;entryX=0;entryY=0.25;entryDx=0;entryDy=0;" parent="WIyWlLk6GJQsqaUBKTNV-1" target="PGyBlTvzSVpYLUktHaig-12" edge="1">
          <mxGeometry relative="1" as="geometry">
            <mxPoint x="102" y="198" as="sourcePoint" />
            <mxPoint x="281" y="200" as="targetPoint" />
          </mxGeometry>
        </mxCell>
        <mxCell id="PGyBlTvzSVpYLUktHaig-22" value="1、build配置文件" style="edgeLabel;resizable=0;html=1;align=center;verticalAlign=middle;" parent="PGyBlTvzSVpYLUktHaig-21" connectable="0" vertex="1">
          <mxGeometry relative="1" as="geometry" />
        </mxCell>
        <mxCell id="PGyBlTvzSVpYLUktHaig-24" value="" style="edgeStyle=orthogonalEdgeStyle;elbow=horizontal;endArrow=classic;html=1;exitX=1;exitY=0.25;exitDx=0;exitDy=0;" parent="WIyWlLk6GJQsqaUBKTNV-1" source="PGyBlTvzSVpYLUktHaig-12" target="PGyBlTvzSVpYLUktHaig-12" edge="1">
          <mxGeometry width="50" height="50" relative="1" as="geometry">
            <mxPoint x="581" y="400" as="sourcePoint" />
            <mxPoint x="381" y="280" as="targetPoint" />
            <Array as="points">
              <mxPoint x="411" y="198" />
              <mxPoint x="411" y="250" />
              <mxPoint x="381" y="250" />
            </Array>
          </mxGeometry>
        </mxCell>
        <mxCell id="PGyBlTvzSVpYLUktHaig-26" value="2、build配置文件" style="text;html=1;strokeColor=none;fillColor=none;align=center;verticalAlign=middle;whiteSpace=wrap;rounded=0;" parent="WIyWlLk6GJQsqaUBKTNV-1" vertex="1">
          <mxGeometry x="412" y="190" width="105" height="20" as="geometry" />
        </mxCell>
        <mxCell id="PGyBlTvzSVpYLUktHaig-27" value="" style="rounded=1;whiteSpace=wrap;html=1;fillColor=#e1d5e7;strokeColor=#9673a6;" parent="WIyWlLk6GJQsqaUBKTNV-1" vertex="1">
          <mxGeometry x="691" y="230" width="30" height="100" as="geometry" />
        </mxCell>
        <mxCell id="PGyBlTvzSVpYLUktHaig-28" value="" style="rounded=1;whiteSpace=wrap;html=1;fillColor=#f8cecc;strokeColor=#b85450;" parent="WIyWlLk6GJQsqaUBKTNV-1" vertex="1">
          <mxGeometry x="1077" y="390" width="30" height="100" as="geometry" />
        </mxCell>
        <mxCell id="PGyBlTvzSVpYLUktHaig-31" value="" style="endArrow=classic;html=1;entryX=-0.033;entryY=0.416;entryDx=0;entryDy=0;entryPerimeter=0;" parent="WIyWlLk6GJQsqaUBKTNV-1" target="PGyBlTvzSVpYLUktHaig-27" edge="1">
          <mxGeometry relative="1" as="geometry">
            <mxPoint x="381" y="272.5" as="sourcePoint" />
            <mxPoint x="611" y="270" as="targetPoint" />
          </mxGeometry>
        </mxCell>
        <mxCell id="PGyBlTvzSVpYLUktHaig-32" value="3、构造方法" style="edgeLabel;resizable=0;html=1;align=center;verticalAlign=middle;" parent="PGyBlTvzSVpYLUktHaig-31" connectable="0" vertex="1">
          <mxGeometry relative="1" as="geometry" />
        </mxCell>
        <mxCell id="PGyBlTvzSVpYLUktHaig-33" value="" style="endArrow=classic;html=1;entryX=0.919;entryY=0.885;entryDx=0;entryDy=0;entryPerimeter=0;exitX=-0.09;exitY=0.627;exitDx=0;exitDy=0;exitPerimeter=0;dashed=1;" parent="WIyWlLk6GJQsqaUBKTNV-1" source="PGyBlTvzSVpYLUktHaig-27" target="PGyBlTvzSVpYLUktHaig-12" edge="1">
          <mxGeometry relative="1" as="geometry">
            <mxPoint x="700.01" y="281.6" as="sourcePoint" />
            <mxPoint x="391" y="282.5" as="targetPoint" />
          </mxGeometry>
        </mxCell>
        <mxCell id="PGyBlTvzSVpYLUktHaig-34" value="返回DefaultSqlSessionFactory对象" style="edgeLabel;resizable=0;html=1;align=center;verticalAlign=middle;" parent="PGyBlTvzSVpYLUktHaig-33" connectable="0" vertex="1">
          <mxGeometry relative="1" as="geometry" />
        </mxCell>
        <mxCell id="PGyBlTvzSVpYLUktHaig-35" value="" style="endArrow=classic;html=1;exitX=-0.071;exitY=0.889;exitDx=0;exitDy=0;exitPerimeter=0;dashed=1;" parent="WIyWlLk6GJQsqaUBKTNV-1" source="PGyBlTvzSVpYLUktHaig-12" edge="1">
          <mxGeometry relative="1" as="geometry">
            <mxPoint x="349" y="290" as="sourcePoint" />
            <mxPoint x="99" y="293" as="targetPoint" />
          </mxGeometry>
        </mxCell>
        <mxCell id="PGyBlTvzSVpYLUktHaig-36" value="返回DefaultSqlSessionFactory对象" style="edgeLabel;resizable=0;html=1;align=center;verticalAlign=middle;" parent="PGyBlTvzSVpYLUktHaig-35" connectable="0" vertex="1">
          <mxGeometry relative="1" as="geometry">
            <mxPoint x="6.08" as="offset" />
          </mxGeometry>
        </mxCell>
        <mxCell id="PGyBlTvzSVpYLUktHaig-48" style="edgeStyle=orthogonalEdgeStyle;rounded=0;orthogonalLoop=1;jettySize=auto;html=1;exitX=1;exitY=0.75;exitDx=0;exitDy=0;entryX=0.067;entryY=0.443;entryDx=0;entryDy=0;entryPerimeter=0;strokeWidth=1;" parent="WIyWlLk6GJQsqaUBKTNV-1" edge="1">
          <mxGeometry relative="1" as="geometry">
            <mxPoint x="721" y="422.0000000000001" as="sourcePoint" />
            <mxPoint x="1079.01" y="421.29999999999995" as="targetPoint" />
            <Array as="points">
              <mxPoint x="900" y="422" />
              <mxPoint x="900" y="421" />
            </Array>
          </mxGeometry>
        </mxCell>
        <mxCell id="PGyBlTvzSVpYLUktHaig-49" value="6、调用构造方法" style="edgeLabel;html=1;align=center;verticalAlign=middle;resizable=0;points=[];" parent="PGyBlTvzSVpYLUktHaig-48" vertex="1" connectable="0">
          <mxGeometry x="-0.0981" y="-1" relative="1" as="geometry">
            <mxPoint y="-3" as="offset" />
          </mxGeometry>
        </mxCell>
        <mxCell id="PGyBlTvzSVpYLUktHaig-37" value="" style="rounded=1;whiteSpace=wrap;html=1;fillColor=#e1d5e7;strokeColor=#9673a6;" parent="WIyWlLk6GJQsqaUBKTNV-1" vertex="1">
          <mxGeometry x="691" y="360" width="30" height="100" as="geometry" />
        </mxCell>
        <mxCell id="PGyBlTvzSVpYLUktHaig-38" value="" style="endArrow=none;dashed=1;html=1;strokeWidth=1;entryX=0.5;entryY=1;entryDx=0;entryDy=0;" parent="WIyWlLk6GJQsqaUBKTNV-1" target="PGyBlTvzSVpYLUktHaig-37" edge="1">
          <mxGeometry width="50" height="50" relative="1" as="geometry">
            <mxPoint x="706" y="520" as="sourcePoint" />
            <mxPoint x="705.4999999999998" y="120" as="targetPoint" />
          </mxGeometry>
        </mxCell>
        <mxCell id="PGyBlTvzSVpYLUktHaig-39" value="" style="endArrow=classic;html=1;entryX=-0.009;entryY=0.199;entryDx=0;entryDy=0;exitX=1.071;exitY=0.669;exitDx=0;exitDy=0;exitPerimeter=0;entryPerimeter=0;" parent="WIyWlLk6GJQsqaUBKTNV-1" source="PGyBlTvzSVpYLUktHaig-3" target="PGyBlTvzSVpYLUktHaig-37" edge="1">
          <mxGeometry relative="1" as="geometry">
            <mxPoint x="108.87" y="381.03999999999996" as="sourcePoint" />
            <mxPoint x="358.12" y="380" as="targetPoint" />
          </mxGeometry>
        </mxCell>
        <mxCell id="PGyBlTvzSVpYLUktHaig-40" value="4、openSession" style="edgeLabel;resizable=0;html=1;align=center;verticalAlign=middle;" parent="PGyBlTvzSVpYLUktHaig-39" connectable="0" vertex="1">
          <mxGeometry relative="1" as="geometry" />
        </mxCell>
        <mxCell id="PGyBlTvzSVpYLUktHaig-41" value="" style="endArrow=classic;html=1;entryX=-0.009;entryY=0.199;entryDx=0;entryDy=0;exitX=0.979;exitY=0.289;exitDx=0;exitDy=0;exitPerimeter=0;entryPerimeter=0;dashed=1;" parent="WIyWlLk6GJQsqaUBKTNV-1" edge="1">
          <mxGeometry relative="1" as="geometry">
            <mxPoint x="691.36" y="445.0000000000001" as="sourcePoint" />
            <mxPoint x="101" y="445.54499999999996" as="targetPoint" />
          </mxGeometry>
        </mxCell>
        <mxCell id="PGyBlTvzSVpYLUktHaig-42" value="返回DefaultSqlSession对象" style="edgeLabel;resizable=0;html=1;align=center;verticalAlign=middle;" parent="PGyBlTvzSVpYLUktHaig-41" connectable="0" vertex="1">
          <mxGeometry relative="1" as="geometry" />
        </mxCell>
        <mxCell id="PGyBlTvzSVpYLUktHaig-43" value="" style="edgeStyle=orthogonalEdgeStyle;elbow=horizontal;endArrow=classic;html=1;exitX=1;exitY=0.25;exitDx=0;exitDy=0;entryX=1.117;entryY=0.392;entryDx=0;entryDy=0;entryPerimeter=0;" parent="WIyWlLk6GJQsqaUBKTNV-1" target="PGyBlTvzSVpYLUktHaig-37" edge="1">
          <mxGeometry width="50" height="50" relative="1" as="geometry">
            <mxPoint x="721" y="370" as="sourcePoint" />
            <mxPoint x="721" y="422.5" as="targetPoint" />
            <Array as="points">
              <mxPoint x="751" y="370" />
              <mxPoint x="751" y="399" />
            </Array>
          </mxGeometry>
        </mxCell>
        <mxCell id="PGyBlTvzSVpYLUktHaig-44" value="5、openSessionFromDataSource" style="text;html=1;strokeColor=none;fillColor=none;align=center;verticalAlign=middle;whiteSpace=wrap;rounded=0;" parent="WIyWlLk6GJQsqaUBKTNV-1" vertex="1">
          <mxGeometry x="741" y="360" width="200" height="20" as="geometry" />
        </mxCell>
        <mxCell id="PGyBlTvzSVpYLUktHaig-46" value="" style="endArrow=classic;html=1;entryX=1.048;entryY=0.709;entryDx=0;entryDy=0;entryPerimeter=0;dashed=1;exitX=0.021;exitY=0.402;exitDx=0;exitDy=0;exitPerimeter=0;" parent="WIyWlLk6GJQsqaUBKTNV-1" edge="1">
          <mxGeometry relative="1" as="geometry">
            <mxPoint x="1077.63" y="444.20000000000005" as="sourcePoint" />
            <mxPoint x="722.4400000000003" y="444.9000000000001" as="targetPoint" />
          </mxGeometry>
        </mxCell>
        <mxCell id="PGyBlTvzSVpYLUktHaig-47" value="返回DefaultSqlSession对象" style="edgeLabel;resizable=0;html=1;align=center;verticalAlign=middle;" parent="PGyBlTvzSVpYLUktHaig-46" connectable="0" vertex="1">
          <mxGeometry relative="1" as="geometry">
            <mxPoint y="1" as="offset" />
          </mxGeometry>
        </mxCell>
        <mxCell id="PGyBlTvzSVpYLUktHaig-50" value="&lt;font color=&quot;#ff3333&quot;&gt;&lt;span style=&quot;font-size: 19px&quot;&gt;&lt;b&gt;MapperProxy的构建流程&lt;/b&gt;&lt;/span&gt;&lt;/font&gt;" style="text;html=1;strokeColor=none;fillColor=none;align=center;verticalAlign=middle;whiteSpace=wrap;rounded=0;" parent="WIyWlLk6GJQsqaUBKTNV-1" vertex="1">
          <mxGeometry x="51" y="550" width="365" height="20" as="geometry" />
        </mxCell>
        <mxCell id="PGyBlTvzSVpYLUktHaig-51" value="Configuration" style="rounded=1;whiteSpace=wrap;html=1;fillColor=#e1d5e7;strokeColor=#9673a6;" parent="WIyWlLk6GJQsqaUBKTNV-1" vertex="1">
          <mxGeometry x="481" y="600" width="150" height="30" as="geometry" />
        </mxCell>
        <mxCell id="PGyBlTvzSVpYLUktHaig-52" value="" style="rounded=1;whiteSpace=wrap;html=1;fillColor=#f5f5f5;strokeColor=#666666;fontColor=#333333;" parent="WIyWlLk6GJQsqaUBKTNV-1" vertex="1">
          <mxGeometry x="70" y="600" width="30" height="265" as="geometry" />
        </mxCell>
        <mxCell id="PGyBlTvzSVpYLUktHaig-53" value="开始执行" style="text;html=1;strokeColor=#d6b656;fillColor=#fff2cc;align=center;verticalAlign=middle;whiteSpace=wrap;rounded=0;" parent="WIyWlLk6GJQsqaUBKTNV-1" vertex="1">
          <mxGeometry x="51" y="640" width="70" height="20" as="geometry" />
        </mxCell>
        <mxCell id="PGyBlTvzSVpYLUktHaig-54" value="DefaultSqlSession" style="rounded=1;whiteSpace=wrap;html=1;fillColor=#dae8fc;strokeColor=#6c8ebf;" parent="WIyWlLk6GJQsqaUBKTNV-1" vertex="1">
          <mxGeometry x="221" y="600" width="150" height="30" as="geometry" />
        </mxCell>
        <mxCell id="PGyBlTvzSVpYLUktHaig-55" value="MapperRegistry" style="rounded=1;whiteSpace=wrap;html=1;fillColor=#f8cecc;strokeColor=#b85450;" parent="WIyWlLk6GJQsqaUBKTNV-1" vertex="1">
          <mxGeometry x="766" y="600" width="150" height="30" as="geometry" />
        </mxCell>
        <mxCell id="PGyBlTvzSVpYLUktHaig-56" value="" style="endArrow=none;dashed=1;html=1;strokeWidth=1;entryX=0.5;entryY=1;entryDx=0;entryDy=0;" parent="WIyWlLk6GJQsqaUBKTNV-1" source="PGyBlTvzSVpYLUktHaig-59" target="PGyBlTvzSVpYLUktHaig-54" edge="1">
          <mxGeometry width="50" height="50" relative="1" as="geometry">
            <mxPoint x="296" y="1610" as="sourcePoint" />
            <mxPoint x="561" y="820" as="targetPoint" />
          </mxGeometry>
        </mxCell>
        <mxCell id="PGyBlTvzSVpYLUktHaig-57" value="" style="endArrow=none;dashed=1;html=1;strokeWidth=1;entryX=0.5;entryY=1;entryDx=0;entryDy=0;" parent="WIyWlLk6GJQsqaUBKTNV-1" edge="1">
          <mxGeometry width="50" height="50" relative="1" as="geometry">
            <mxPoint x="555.9137931034484" y="870" as="sourcePoint" />
            <mxPoint x="555.4999999999998" y="630" as="targetPoint" />
          </mxGeometry>
        </mxCell>
        <mxCell id="PGyBlTvzSVpYLUktHaig-58" value="" style="endArrow=none;dashed=1;html=1;strokeWidth=1;entryX=0.5;entryY=1;entryDx=0;entryDy=0;" parent="WIyWlLk6GJQsqaUBKTNV-1" source="PGyBlTvzSVpYLUktHaig-89" edge="1">
          <mxGeometry width="50" height="50" relative="1" as="geometry">
            <mxPoint x="846.0000000000002" y="1030" as="sourcePoint" />
            <mxPoint x="846.0000000000002" y="630" as="targetPoint" />
          </mxGeometry>
        </mxCell>
        <mxCell id="PGyBlTvzSVpYLUktHaig-59" value="" style="rounded=1;whiteSpace=wrap;html=1;fillColor=#dae8fc;strokeColor=#6c8ebf;" parent="WIyWlLk6GJQsqaUBKTNV-1" vertex="1">
          <mxGeometry x="281" y="670" width="30" height="150" as="geometry" />
        </mxCell>
        <mxCell id="PGyBlTvzSVpYLUktHaig-60" value="" style="endArrow=none;dashed=1;html=1;strokeWidth=1;entryX=0.5;entryY=1;entryDx=0;entryDy=0;" parent="WIyWlLk6GJQsqaUBKTNV-1" target="PGyBlTvzSVpYLUktHaig-59" edge="1">
          <mxGeometry width="50" height="50" relative="1" as="geometry">
            <mxPoint x="296" y="870" as="sourcePoint" />
            <mxPoint x="296" y="630" as="targetPoint" />
          </mxGeometry>
        </mxCell>
        <mxCell id="PGyBlTvzSVpYLUktHaig-61" value="" style="endArrow=classic;html=1;entryX=0;entryY=0.25;entryDx=0;entryDy=0;" parent="WIyWlLk6GJQsqaUBKTNV-1" target="PGyBlTvzSVpYLUktHaig-59" edge="1">
          <mxGeometry relative="1" as="geometry">
            <mxPoint x="102" y="708" as="sourcePoint" />
            <mxPoint x="281" y="710" as="targetPoint" />
          </mxGeometry>
        </mxCell>
        <mxCell id="PGyBlTvzSVpYLUktHaig-62" value="1、getMapper(class)" style="edgeLabel;resizable=0;html=1;align=center;verticalAlign=middle;" parent="PGyBlTvzSVpYLUktHaig-61" connectable="0" vertex="1">
          <mxGeometry relative="1" as="geometry" />
        </mxCell>
        <mxCell id="PGyBlTvzSVpYLUktHaig-91" style="edgeStyle=orthogonalEdgeStyle;rounded=0;orthogonalLoop=1;jettySize=auto;html=1;exitX=1.022;exitY=0.329;exitDx=0;exitDy=0;entryX=0.017;entryY=0.161;entryDx=0;entryDy=0;entryPerimeter=0;strokeWidth=1;exitPerimeter=0;" parent="WIyWlLk6GJQsqaUBKTNV-1" source="PGyBlTvzSVpYLUktHaig-65" target="PGyBlTvzSVpYLUktHaig-89" edge="1">
          <mxGeometry relative="1" as="geometry" />
        </mxCell>
        <mxCell id="PGyBlTvzSVpYLUktHaig-92" value="3、getMapper(class,Sqlsession)" style="edgeLabel;html=1;align=center;verticalAlign=middle;resizable=0;points=[];" parent="PGyBlTvzSVpYLUktHaig-91" vertex="1" connectable="0">
          <mxGeometry x="0.0504" y="-1" relative="1" as="geometry">
            <mxPoint as="offset" />
          </mxGeometry>
        </mxCell>
        <mxCell id="PGyBlTvzSVpYLUktHaig-65" value="" style="rounded=1;whiteSpace=wrap;html=1;fillColor=#e1d5e7;strokeColor=#9673a6;" parent="WIyWlLk6GJQsqaUBKTNV-1" vertex="1">
          <mxGeometry x="541" y="700" width="30" height="140" as="geometry" />
        </mxCell>
        <mxCell id="PGyBlTvzSVpYLUktHaig-67" value="" style="endArrow=classic;html=1;entryX=0.01;entryY=0.107;entryDx=0;entryDy=0;entryPerimeter=0;exitX=0.981;exitY=0.308;exitDx=0;exitDy=0;exitPerimeter=0;" parent="WIyWlLk6GJQsqaUBKTNV-1" source="PGyBlTvzSVpYLUktHaig-59" target="PGyBlTvzSVpYLUktHaig-65" edge="1">
          <mxGeometry relative="1" as="geometry">
            <mxPoint x="231" y="717.5" as="sourcePoint" />
            <mxPoint x="540.0099999999998" y="716.6000000000001" as="targetPoint" />
          </mxGeometry>
        </mxCell>
        <mxCell id="PGyBlTvzSVpYLUktHaig-68" value="2、getMapper(class)" style="edgeLabel;resizable=0;html=1;align=center;verticalAlign=middle;" parent="PGyBlTvzSVpYLUktHaig-67" connectable="0" vertex="1">
          <mxGeometry relative="1" as="geometry" />
        </mxCell>
        <mxCell id="PGyBlTvzSVpYLUktHaig-69" value="" style="endArrow=classic;html=1;exitX=0.056;exitY=0.797;exitDx=0;exitDy=0;exitPerimeter=0;dashed=1;entryX=1.038;entryY=0.94;entryDx=0;entryDy=0;entryPerimeter=0;" parent="WIyWlLk6GJQsqaUBKTNV-1" source="PGyBlTvzSVpYLUktHaig-65" target="PGyBlTvzSVpYLUktHaig-59" edge="1">
          <mxGeometry relative="1" as="geometry">
            <mxPoint x="537.1599999999999" y="810.72" as="sourcePoint" />
            <mxPoint x="231" y="810" as="targetPoint" />
          </mxGeometry>
        </mxCell>
        <mxCell id="PGyBlTvzSVpYLUktHaig-70" value="return MapperProxy" style="edgeLabel;resizable=0;html=1;align=center;verticalAlign=middle;" parent="PGyBlTvzSVpYLUktHaig-69" connectable="0" vertex="1">
          <mxGeometry relative="1" as="geometry" />
        </mxCell>
        <mxCell id="PGyBlTvzSVpYLUktHaig-71" value="" style="endArrow=classic;html=1;dashed=1;" parent="WIyWlLk6GJQsqaUBKTNV-1" edge="1">
          <mxGeometry relative="1" as="geometry">
            <mxPoint x="281" y="809" as="sourcePoint" />
            <mxPoint x="101" y="809" as="targetPoint" />
          </mxGeometry>
        </mxCell>
        <mxCell id="PGyBlTvzSVpYLUktHaig-72" value="return MapperProxy" style="edgeLabel;resizable=0;html=1;align=center;verticalAlign=middle;" parent="PGyBlTvzSVpYLUktHaig-71" connectable="0" vertex="1">
          <mxGeometry relative="1" as="geometry">
            <mxPoint x="8.08" as="offset" />
          </mxGeometry>
        </mxCell>
        <mxCell id="PGyBlTvzSVpYLUktHaig-85" value="MapperProxyFactory" style="rounded=1;whiteSpace=wrap;html=1;fillColor=#fff2cc;strokeColor=#d6b656;" parent="WIyWlLk6GJQsqaUBKTNV-1" vertex="1">
          <mxGeometry x="1009.69" y="600" width="150" height="30" as="geometry" />
        </mxCell>
        <mxCell id="PGyBlTvzSVpYLUktHaig-86" value="" style="endArrow=none;dashed=1;html=1;strokeWidth=1;entryX=0.5;entryY=1;entryDx=0;entryDy=0;" parent="WIyWlLk6GJQsqaUBKTNV-1" source="PGyBlTvzSVpYLUktHaig-87" edge="1">
          <mxGeometry width="50" height="50" relative="1" as="geometry">
            <mxPoint x="1089.6900000000003" y="1030" as="sourcePoint" />
            <mxPoint x="1089.6900000000003" y="630" as="targetPoint" />
          </mxGeometry>
        </mxCell>
        <mxCell id="PGyBlTvzSVpYLUktHaig-94" style="edgeStyle=orthogonalEdgeStyle;rounded=0;orthogonalLoop=1;jettySize=auto;html=1;exitX=1;exitY=0.5;exitDx=0;exitDy=0;entryX=0.006;entryY=0.365;entryDx=0;entryDy=0;entryPerimeter=0;strokeWidth=1;" parent="WIyWlLk6GJQsqaUBKTNV-1" source="PGyBlTvzSVpYLUktHaig-89" target="PGyBlTvzSVpYLUktHaig-87" edge="1">
          <mxGeometry relative="1" as="geometry" />
        </mxCell>
        <mxCell id="PGyBlTvzSVpYLUktHaig-95" value="4、构造方法" style="edgeLabel;html=1;align=center;verticalAlign=middle;resizable=0;points=[];" parent="PGyBlTvzSVpYLUktHaig-94" vertex="1" connectable="0">
          <mxGeometry x="-0.0606" relative="1" as="geometry">
            <mxPoint as="offset" />
          </mxGeometry>
        </mxCell>
        <mxCell id="PGyBlTvzSVpYLUktHaig-98" style="edgeStyle=orthogonalEdgeStyle;rounded=0;orthogonalLoop=1;jettySize=auto;html=1;entryX=0.976;entryY=0.802;entryDx=0;entryDy=0;entryPerimeter=0;strokeWidth=1;dashed=1;exitX=-0.014;exitY=0.839;exitDx=0;exitDy=0;exitPerimeter=0;" parent="WIyWlLk6GJQsqaUBKTNV-1" source="PGyBlTvzSVpYLUktHaig-89" target="PGyBlTvzSVpYLUktHaig-65" edge="1">
          <mxGeometry relative="1" as="geometry">
            <mxPoint x="1007" y="812" as="sourcePoint" />
          </mxGeometry>
        </mxCell>
        <mxCell id="PGyBlTvzSVpYLUktHaig-99" value="return MapperProxy" style="edgeLabel;html=1;align=center;verticalAlign=middle;resizable=0;points=[];" parent="PGyBlTvzSVpYLUktHaig-98" vertex="1" connectable="0">
          <mxGeometry x="-0.388" relative="1" as="geometry">
            <mxPoint x="-49.64" y="-2" as="offset" />
          </mxGeometry>
        </mxCell>
        <mxCell id="PGyBlTvzSVpYLUktHaig-89" value="" style="rounded=1;whiteSpace=wrap;html=1;fillColor=#f8cecc;strokeColor=#b85450;" parent="WIyWlLk6GJQsqaUBKTNV-1" vertex="1">
          <mxGeometry x="832" y="730" width="30" height="100" as="geometry" />
        </mxCell>
        <mxCell id="PGyBlTvzSVpYLUktHaig-90" value="" style="endArrow=none;dashed=1;html=1;strokeWidth=1;entryX=0.5;entryY=1;entryDx=0;entryDy=0;" parent="WIyWlLk6GJQsqaUBKTNV-1" target="PGyBlTvzSVpYLUktHaig-89" edge="1">
          <mxGeometry width="50" height="50" relative="1" as="geometry">
            <mxPoint x="847" y="870" as="sourcePoint" />
            <mxPoint x="846" y="630" as="targetPoint" />
          </mxGeometry>
        </mxCell>
        <mxCell id="PGyBlTvzSVpYLUktHaig-96" style="edgeStyle=orthogonalEdgeStyle;rounded=0;orthogonalLoop=1;jettySize=auto;html=1;exitX=0;exitY=0.75;exitDx=0;exitDy=0;entryX=0.983;entryY=0.802;entryDx=0;entryDy=0;entryPerimeter=0;strokeWidth=1;dashed=1;" parent="WIyWlLk6GJQsqaUBKTNV-1" source="PGyBlTvzSVpYLUktHaig-87" target="PGyBlTvzSVpYLUktHaig-89" edge="1">
          <mxGeometry relative="1" as="geometry" />
        </mxCell>
        <mxCell id="PGyBlTvzSVpYLUktHaig-97" value="return MapperProxy" style="edgeLabel;html=1;align=center;verticalAlign=middle;resizable=0;points=[];" parent="PGyBlTvzSVpYLUktHaig-96" vertex="1" connectable="0">
          <mxGeometry x="0.128" y="1" relative="1" as="geometry">
            <mxPoint as="offset" />
          </mxGeometry>
        </mxCell>
        <mxCell id="PGyBlTvzSVpYLUktHaig-101" style="edgeStyle=orthogonalEdgeStyle;rounded=0;orthogonalLoop=1;jettySize=auto;html=1;exitX=1;exitY=0.25;exitDx=0;exitDy=0;strokeWidth=1;entryX=0.994;entryY=0.565;entryDx=0;entryDy=0;entryPerimeter=0;" parent="WIyWlLk6GJQsqaUBKTNV-1" source="PGyBlTvzSVpYLUktHaig-87" target="PGyBlTvzSVpYLUktHaig-87" edge="1">
          <mxGeometry relative="1" as="geometry">
            <mxPoint x="1169.69" y="810" as="targetPoint" />
            <Array as="points">
              <mxPoint x="1125.69" y="770" />
              <mxPoint x="1125.69" y="795" />
            </Array>
          </mxGeometry>
        </mxCell>
        <mxCell id="PGyBlTvzSVpYLUktHaig-87" value="" style="rounded=1;whiteSpace=wrap;html=1;fillColor=#fff2cc;strokeColor=#d6b656;" parent="WIyWlLk6GJQsqaUBKTNV-1" vertex="1">
          <mxGeometry x="1075.69" y="750" width="30" height="80" as="geometry" />
        </mxCell>
        <mxCell id="PGyBlTvzSVpYLUktHaig-93" value="" style="endArrow=none;dashed=1;html=1;strokeWidth=1;entryX=0.5;entryY=1;entryDx=0;entryDy=0;" parent="WIyWlLk6GJQsqaUBKTNV-1" target="PGyBlTvzSVpYLUktHaig-87" edge="1">
          <mxGeometry width="50" height="50" relative="1" as="geometry">
            <mxPoint x="1090.69" y="870" as="sourcePoint" />
            <mxPoint x="1089.69" y="630" as="targetPoint" />
          </mxGeometry>
        </mxCell>
        <mxCell id="PGyBlTvzSVpYLUktHaig-100" value="newInstance" style="text;html=1;strokeColor=none;fillColor=none;align=center;verticalAlign=middle;whiteSpace=wrap;rounded=0;" parent="WIyWlLk6GJQsqaUBKTNV-1" vertex="1">
          <mxGeometry x="1131" y="760" width="70" height="20" as="geometry" />
        </mxCell>
        <mxCell id="PGyBlTvzSVpYLUktHaig-102" value="&lt;font color=&quot;#ff3333&quot;&gt;&lt;span style=&quot;font-size: 19px&quot;&gt;&lt;b&gt;Executor执行流程&lt;/b&gt;&lt;/span&gt;&lt;/font&gt;" style="text;html=1;strokeColor=none;fillColor=none;align=center;verticalAlign=middle;whiteSpace=wrap;rounded=0;" parent="WIyWlLk6GJQsqaUBKTNV-1" vertex="1">
          <mxGeometry x="51" y="920" width="365" height="20" as="geometry" />
        </mxCell>
        <mxCell id="PGyBlTvzSVpYLUktHaig-103" value="MapperMethod" style="rounded=1;whiteSpace=wrap;html=1;fillColor=#e1d5e7;strokeColor=#9673a6;" parent="WIyWlLk6GJQsqaUBKTNV-1" vertex="1">
          <mxGeometry x="431" y="970" width="150" height="30" as="geometry" />
        </mxCell>
        <mxCell id="PGyBlTvzSVpYLUktHaig-104" value="" style="rounded=1;whiteSpace=wrap;html=1;fillColor=#f5f5f5;strokeColor=#666666;fontColor=#333333;" parent="WIyWlLk6GJQsqaUBKTNV-1" vertex="1">
          <mxGeometry x="70" y="970" width="30" height="420" as="geometry" />
        </mxCell>
        <mxCell id="PGyBlTvzSVpYLUktHaig-105" value="开始执行" style="text;html=1;strokeColor=#d6b656;fillColor=#fff2cc;align=center;verticalAlign=middle;whiteSpace=wrap;rounded=0;" parent="WIyWlLk6GJQsqaUBKTNV-1" vertex="1">
          <mxGeometry x="51" y="1010" width="70" height="20" as="geometry" />
        </mxCell>
        <mxCell id="PGyBlTvzSVpYLUktHaig-106" value="MapperProxy" style="rounded=1;whiteSpace=wrap;html=1;fillColor=#dae8fc;strokeColor=#6c8ebf;" parent="WIyWlLk6GJQsqaUBKTNV-1" vertex="1">
          <mxGeometry x="221" y="970" width="150" height="30" as="geometry" />
        </mxCell>
        <mxCell id="PGyBlTvzSVpYLUktHaig-107" value="DefaultSqlSession" style="rounded=1;whiteSpace=wrap;html=1;fillColor=#f8cecc;strokeColor=#b85450;" parent="WIyWlLk6GJQsqaUBKTNV-1" vertex="1">
          <mxGeometry x="651" y="970" width="150" height="30" as="geometry" />
        </mxCell>
        <mxCell id="PGyBlTvzSVpYLUktHaig-108" value="" style="endArrow=none;dashed=1;html=1;strokeWidth=1;entryX=0.5;entryY=1;entryDx=0;entryDy=0;" parent="WIyWlLk6GJQsqaUBKTNV-1" source="PGyBlTvzSVpYLUktHaig-111" target="PGyBlTvzSVpYLUktHaig-106" edge="1">
          <mxGeometry width="50" height="50" relative="1" as="geometry">
            <mxPoint x="296" y="1980" as="sourcePoint" />
            <mxPoint x="561" y="1190" as="targetPoint" />
          </mxGeometry>
        </mxCell>
        <mxCell id="PGyBlTvzSVpYLUktHaig-109" value="" style="endArrow=none;dashed=1;html=1;strokeWidth=1;entryX=0.5;entryY=1;entryDx=0;entryDy=0;" parent="WIyWlLk6GJQsqaUBKTNV-1" edge="1">
          <mxGeometry width="50" height="50" relative="1" as="geometry">
            <mxPoint x="506" y="1390" as="sourcePoint" />
            <mxPoint x="505.5" y="1000" as="targetPoint" />
          </mxGeometry>
        </mxCell>
        <mxCell id="PGyBlTvzSVpYLUktHaig-110" value="" style="endArrow=none;dashed=1;html=1;strokeWidth=1;entryX=0.5;entryY=1;entryDx=0;entryDy=0;" parent="WIyWlLk6GJQsqaUBKTNV-1" source="PGyBlTvzSVpYLUktHaig-130" edge="1">
          <mxGeometry width="50" height="50" relative="1" as="geometry">
            <mxPoint x="731.0000000000002" y="1400" as="sourcePoint" />
            <mxPoint x="731" y="1000" as="targetPoint" />
          </mxGeometry>
        </mxCell>
        <mxCell id="PGyBlTvzSVpYLUktHaig-111" value="" style="rounded=1;whiteSpace=wrap;html=1;fillColor=#dae8fc;strokeColor=#6c8ebf;" parent="WIyWlLk6GJQsqaUBKTNV-1" vertex="1">
          <mxGeometry x="281" y="1040" width="30" height="200" as="geometry" />
        </mxCell>
        <mxCell id="PGyBlTvzSVpYLUktHaig-112" value="" style="endArrow=none;dashed=1;html=1;strokeWidth=1;entryX=0.5;entryY=1;entryDx=0;entryDy=0;" parent="WIyWlLk6GJQsqaUBKTNV-1" target="PGyBlTvzSVpYLUktHaig-111" edge="1">
          <mxGeometry width="50" height="50" relative="1" as="geometry">
            <mxPoint x="296" y="1390" as="sourcePoint" />
            <mxPoint x="296" y="1000" as="targetPoint" />
          </mxGeometry>
        </mxCell>
        <mxCell id="PGyBlTvzSVpYLUktHaig-113" value="" style="endArrow=classic;html=1;" parent="WIyWlLk6GJQsqaUBKTNV-1" edge="1">
          <mxGeometry relative="1" as="geometry">
            <mxPoint x="102" y="1078" as="sourcePoint" />
            <mxPoint x="279" y="1078" as="targetPoint" />
          </mxGeometry>
        </mxCell>
        <mxCell id="PGyBlTvzSVpYLUktHaig-114" value="1、invoke()" style="edgeLabel;resizable=0;html=1;align=center;verticalAlign=middle;" parent="PGyBlTvzSVpYLUktHaig-113" connectable="0" vertex="1">
          <mxGeometry relative="1" as="geometry" />
        </mxCell>
        <mxCell id="PGyBlTvzSVpYLUktHaig-115" style="edgeStyle=orthogonalEdgeStyle;rounded=0;orthogonalLoop=1;jettySize=auto;html=1;exitX=1.022;exitY=0.329;exitDx=0;exitDy=0;entryX=0.017;entryY=0.161;entryDx=0;entryDy=0;entryPerimeter=0;strokeWidth=1;exitPerimeter=0;" parent="WIyWlLk6GJQsqaUBKTNV-1" edge="1">
          <mxGeometry relative="1" as="geometry">
            <mxPoint x="521.6599999999999" y="1143.06" as="sourcePoint" />
            <mxPoint x="717.5100000000002" y="1143.1" as="targetPoint" />
          </mxGeometry>
        </mxCell>
        <mxCell id="PGyBlTvzSVpYLUktHaig-116" value="4、对应CRUD方法" style="edgeLabel;html=1;align=center;verticalAlign=middle;resizable=0;points=[];" parent="PGyBlTvzSVpYLUktHaig-115" vertex="1" connectable="0">
          <mxGeometry x="0.0504" y="-1" relative="1" as="geometry">
            <mxPoint as="offset" />
          </mxGeometry>
        </mxCell>
        <mxCell id="PGyBlTvzSVpYLUktHaig-158" style="edgeStyle=orthogonalEdgeStyle;rounded=0;orthogonalLoop=1;jettySize=auto;html=1;exitX=1.005;exitY=0.11;exitDx=0;exitDy=0;strokeWidth=1;entryX=1.008;entryY=0.283;entryDx=0;entryDy=0;entryPerimeter=0;exitPerimeter=0;" parent="WIyWlLk6GJQsqaUBKTNV-1" source="PGyBlTvzSVpYLUktHaig-117" target="PGyBlTvzSVpYLUktHaig-117" edge="1">
          <mxGeometry relative="1" as="geometry">
            <mxPoint x="541" y="1130" as="targetPoint" />
            <Array as="points">
              <mxPoint x="541" y="1090" />
              <mxPoint x="541" y="1120" />
              <mxPoint x="521" y="1120" />
            </Array>
          </mxGeometry>
        </mxCell>
        <mxCell id="PGyBlTvzSVpYLUktHaig-117" value="" style="rounded=1;whiteSpace=wrap;html=1;fillColor=#e1d5e7;strokeColor=#9673a6;" parent="WIyWlLk6GJQsqaUBKTNV-1" vertex="1">
          <mxGeometry x="491" y="1070" width="30" height="180" as="geometry" />
        </mxCell>
        <mxCell id="PGyBlTvzSVpYLUktHaig-118" value="" style="endArrow=classic;html=1;entryX=0.01;entryY=0.107;entryDx=0;entryDy=0;entryPerimeter=0;" parent="WIyWlLk6GJQsqaUBKTNV-1" target="PGyBlTvzSVpYLUktHaig-117" edge="1">
          <mxGeometry relative="1" as="geometry">
            <mxPoint x="313" y="1089" as="sourcePoint" />
            <mxPoint x="540.0099999999998" y="1086.6000000000001" as="targetPoint" />
          </mxGeometry>
        </mxCell>
        <mxCell id="PGyBlTvzSVpYLUktHaig-119" value="2、execute()" style="edgeLabel;resizable=0;html=1;align=center;verticalAlign=middle;" parent="PGyBlTvzSVpYLUktHaig-118" connectable="0" vertex="1">
          <mxGeometry relative="1" as="geometry" />
        </mxCell>
        <mxCell id="PGyBlTvzSVpYLUktHaig-124" value="SimpleExecutor" style="rounded=1;whiteSpace=wrap;html=1;fillColor=#fff2cc;strokeColor=#d6b656;" parent="WIyWlLk6GJQsqaUBKTNV-1" vertex="1">
          <mxGeometry x="878" y="970" width="150" height="30" as="geometry" />
        </mxCell>
        <mxCell id="PGyBlTvzSVpYLUktHaig-125" value="" style="endArrow=none;dashed=1;html=1;strokeWidth=1;entryX=0.5;entryY=1;entryDx=0;entryDy=0;" parent="WIyWlLk6GJQsqaUBKTNV-1" source="PGyBlTvzSVpYLUktHaig-135" edge="1">
          <mxGeometry width="50" height="50" relative="1" as="geometry">
            <mxPoint x="958.0000000000002" y="1400" as="sourcePoint" />
            <mxPoint x="958.0000000000005" y="1000" as="targetPoint" />
          </mxGeometry>
        </mxCell>
        <mxCell id="PGyBlTvzSVpYLUktHaig-126" style="edgeStyle=orthogonalEdgeStyle;rounded=0;orthogonalLoop=1;jettySize=auto;html=1;exitX=1;exitY=0.5;exitDx=0;exitDy=0;entryX=-0.027;entryY=0.149;entryDx=0;entryDy=0;entryPerimeter=0;strokeWidth=1;" parent="WIyWlLk6GJQsqaUBKTNV-1" source="PGyBlTvzSVpYLUktHaig-130" target="PGyBlTvzSVpYLUktHaig-135" edge="1">
          <mxGeometry relative="1" as="geometry">
            <Array as="points">
              <mxPoint x="747" y="1150" />
            </Array>
          </mxGeometry>
        </mxCell>
        <mxCell id="PGyBlTvzSVpYLUktHaig-127" value="5、query()" style="edgeLabel;html=1;align=center;verticalAlign=middle;resizable=0;points=[];" parent="PGyBlTvzSVpYLUktHaig-126" vertex="1" connectable="0">
          <mxGeometry x="-0.0606" relative="1" as="geometry">
            <mxPoint as="offset" />
          </mxGeometry>
        </mxCell>
        <mxCell id="PGyBlTvzSVpYLUktHaig-128" style="edgeStyle=orthogonalEdgeStyle;rounded=0;orthogonalLoop=1;jettySize=auto;html=1;entryX=1.078;entryY=0.696;entryDx=0;entryDy=0;entryPerimeter=0;strokeWidth=1;dashed=1;" parent="WIyWlLk6GJQsqaUBKTNV-1" target="PGyBlTvzSVpYLUktHaig-104" edge="1">
          <mxGeometry relative="1" as="geometry">
            <mxPoint x="717" y="1270" as="sourcePoint" />
            <Array as="points">
              <mxPoint x="717" y="1262" />
            </Array>
          </mxGeometry>
        </mxCell>
        <mxCell id="PGyBlTvzSVpYLUktHaig-129" value="返回最终数据" style="edgeLabel;html=1;align=center;verticalAlign=middle;resizable=0;points=[];" parent="PGyBlTvzSVpYLUktHaig-128" vertex="1" connectable="0">
          <mxGeometry x="-0.388" relative="1" as="geometry">
            <mxPoint x="-102.83" y="-2.33" as="offset" />
          </mxGeometry>
        </mxCell>
        <mxCell id="PGyBlTvzSVpYLUktHaig-130" value="" style="rounded=1;whiteSpace=wrap;html=1;fillColor=#f8cecc;strokeColor=#b85450;" parent="WIyWlLk6GJQsqaUBKTNV-1" vertex="1">
          <mxGeometry x="717" y="1100" width="30" height="210" as="geometry" />
        </mxCell>
        <mxCell id="PGyBlTvzSVpYLUktHaig-131" value="" style="endArrow=none;dashed=1;html=1;strokeWidth=1;entryX=0.5;entryY=1;entryDx=0;entryDy=0;" parent="WIyWlLk6GJQsqaUBKTNV-1" target="PGyBlTvzSVpYLUktHaig-130" edge="1">
          <mxGeometry width="50" height="50" relative="1" as="geometry">
            <mxPoint x="732" y="1390" as="sourcePoint" />
            <mxPoint x="731" y="1000" as="targetPoint" />
          </mxGeometry>
        </mxCell>
        <mxCell id="PGyBlTvzSVpYLUktHaig-132" style="edgeStyle=orthogonalEdgeStyle;rounded=0;orthogonalLoop=1;jettySize=auto;html=1;exitX=0;exitY=0.75;exitDx=0;exitDy=0;entryX=0.983;entryY=0.802;entryDx=0;entryDy=0;entryPerimeter=0;strokeWidth=1;dashed=1;" parent="WIyWlLk6GJQsqaUBKTNV-1" source="PGyBlTvzSVpYLUktHaig-135" target="PGyBlTvzSVpYLUktHaig-130" edge="1">
          <mxGeometry relative="1" as="geometry" />
        </mxCell>
        <mxCell id="PGyBlTvzSVpYLUktHaig-133" value="返回最终数据" style="edgeLabel;html=1;align=center;verticalAlign=middle;resizable=0;points=[];" parent="PGyBlTvzSVpYLUktHaig-132" vertex="1" connectable="0">
          <mxGeometry x="0.128" y="1" relative="1" as="geometry">
            <mxPoint as="offset" />
          </mxGeometry>
        </mxCell>
        <mxCell id="PGyBlTvzSVpYLUktHaig-134" style="edgeStyle=orthogonalEdgeStyle;rounded=1;orthogonalLoop=1;jettySize=auto;html=1;strokeWidth=1;entryX=1.021;entryY=0.228;entryDx=0;entryDy=0;entryPerimeter=0;exitX=1.024;exitY=0.097;exitDx=0;exitDy=0;exitPerimeter=0;" parent="WIyWlLk6GJQsqaUBKTNV-1" target="PGyBlTvzSVpYLUktHaig-135" edge="1" source="PGyBlTvzSVpYLUktHaig-135">
          <mxGeometry relative="1" as="geometry">
            <mxPoint x="974" y="1167" as="targetPoint" />
            <Array as="points">
              <mxPoint x="994" y="1139" />
              <mxPoint x="994" y="1165" />
              <mxPoint x="975" y="1165" />
            </Array>
            <mxPoint x="974" y="1167" as="sourcePoint" />
          </mxGeometry>
        </mxCell>
        <mxCell id="PGyBlTvzSVpYLUktHaig-160" style="edgeStyle=orthogonalEdgeStyle;rounded=1;orthogonalLoop=1;jettySize=auto;html=1;exitX=1.041;exitY=0.336;exitDx=0;exitDy=0;strokeWidth=1;exitPerimeter=0;" parent="WIyWlLk6GJQsqaUBKTNV-1" source="PGyBlTvzSVpYLUktHaig-135" edge="1">
          <mxGeometry relative="1" as="geometry">
            <mxPoint x="974.0582524271842" y="1220" as="targetPoint" />
            <Array as="points">
              <mxPoint x="974" y="1187" />
              <mxPoint x="994" y="1187" />
              <mxPoint x="994" y="1220" />
            </Array>
          </mxGeometry>
        </mxCell>
        <mxCell id="PGyBlTvzSVpYLUktHaig-164" style="edgeStyle=orthogonalEdgeStyle;rounded=0;orthogonalLoop=1;jettySize=auto;html=1;exitX=1;exitY=0.75;exitDx=0;exitDy=0;entryX=0.016;entryY=0.408;entryDx=0;entryDy=0;entryPerimeter=0;strokeWidth=1;" parent="WIyWlLk6GJQsqaUBKTNV-1" source="PGyBlTvzSVpYLUktHaig-135" target="PGyBlTvzSVpYLUktHaig-148" edge="1">
          <mxGeometry relative="1" as="geometry">
            <Array as="points">
              <mxPoint x="974" y="1247" />
            </Array>
          </mxGeometry>
        </mxCell>
        <mxCell id="PGyBlTvzSVpYLUktHaig-165" value="8、query()" style="edgeLabel;html=1;align=center;verticalAlign=middle;resizable=0;points=[];" parent="PGyBlTvzSVpYLUktHaig-164" vertex="1" connectable="0">
          <mxGeometry x="0.2109" y="1" relative="1" as="geometry">
            <mxPoint x="-10.33" as="offset" />
          </mxGeometry>
        </mxCell>
        <mxCell id="PGyBlTvzSVpYLUktHaig-135" value="" style="rounded=1;whiteSpace=wrap;html=1;fillColor=#fff2cc;strokeColor=#d6b656;" parent="WIyWlLk6GJQsqaUBKTNV-1" vertex="1">
          <mxGeometry x="944" y="1120" width="30" height="200" as="geometry" />
        </mxCell>
        <mxCell id="PGyBlTvzSVpYLUktHaig-136" value="" style="endArrow=none;dashed=1;html=1;strokeWidth=1;entryX=0.5;entryY=1;entryDx=0;entryDy=0;" parent="WIyWlLk6GJQsqaUBKTNV-1" target="PGyBlTvzSVpYLUktHaig-135" edge="1">
          <mxGeometry width="50" height="50" relative="1" as="geometry">
            <mxPoint x="959" y="1390" as="sourcePoint" />
            <mxPoint x="958" y="1000" as="targetPoint" />
          </mxGeometry>
        </mxCell>
        <mxCell id="PGyBlTvzSVpYLUktHaig-137" value="6、QueryFromDatabase()" style="text;html=1;strokeColor=none;fillColor=none;align=center;verticalAlign=middle;whiteSpace=wrap;rounded=0;" parent="WIyWlLk6GJQsqaUBKTNV-1" vertex="1">
          <mxGeometry x="991" y="1120" width="150" height="20" as="geometry" />
        </mxCell>
        <mxCell id="PGyBlTvzSVpYLUktHaig-145" value="PrepareStatement" style="rounded=1;whiteSpace=wrap;html=1;fillColor=#d5e8d4;strokeColor=#82b366;" parent="WIyWlLk6GJQsqaUBKTNV-1" vertex="1">
          <mxGeometry x="1091" y="970" width="150" height="30" as="geometry" />
        </mxCell>
        <mxCell id="PGyBlTvzSVpYLUktHaig-146" value="" style="endArrow=none;dashed=1;html=1;strokeWidth=1;entryX=0.5;entryY=1;entryDx=0;entryDy=0;" parent="WIyWlLk6GJQsqaUBKTNV-1" source="PGyBlTvzSVpYLUktHaig-148" edge="1">
          <mxGeometry width="50" height="50" relative="1" as="geometry">
            <mxPoint x="1171.0000000000002" y="1400" as="sourcePoint" />
            <mxPoint x="1171.0000000000005" y="1000" as="targetPoint" />
          </mxGeometry>
        </mxCell>
        <mxCell id="PGyBlTvzSVpYLUktHaig-166" style="edgeStyle=orthogonalEdgeStyle;rounded=0;orthogonalLoop=1;jettySize=auto;html=1;exitX=1.038;exitY=0.423;exitDx=0;exitDy=0;strokeWidth=1;exitPerimeter=0;" parent="WIyWlLk6GJQsqaUBKTNV-1" source="PGyBlTvzSVpYLUktHaig-148" edge="1">
          <mxGeometry relative="1" as="geometry">
            <mxPoint x="1366" y="1249" as="targetPoint" />
            <Array as="points">
              <mxPoint x="1186" y="1249" />
            </Array>
          </mxGeometry>
        </mxCell>
        <mxCell id="PGyBlTvzSVpYLUktHaig-167" value="10、handleResultSets" style="edgeLabel;html=1;align=center;verticalAlign=middle;resizable=0;points=[];" parent="PGyBlTvzSVpYLUktHaig-166" vertex="1" connectable="0">
          <mxGeometry x="-0.1271" relative="1" as="geometry">
            <mxPoint as="offset" />
          </mxGeometry>
        </mxCell>
        <mxCell id="PGyBlTvzSVpYLUktHaig-172" style="edgeStyle=orthogonalEdgeStyle;rounded=0;orthogonalLoop=1;jettySize=auto;html=1;exitX=0;exitY=0.75;exitDx=0;exitDy=0;entryX=1.044;entryY=0.868;entryDx=0;entryDy=0;entryPerimeter=0;dashed=1;strokeWidth=1;" parent="WIyWlLk6GJQsqaUBKTNV-1" source="PGyBlTvzSVpYLUktHaig-148" target="PGyBlTvzSVpYLUktHaig-135" edge="1">
          <mxGeometry relative="1" as="geometry">
            <Array as="points">
              <mxPoint x="1156" y="1294" />
              <mxPoint x="1065" y="1294" />
            </Array>
          </mxGeometry>
        </mxCell>
        <mxCell id="PGyBlTvzSVpYLUktHaig-173" value="返回最终数据" style="edgeLabel;html=1;align=center;verticalAlign=middle;resizable=0;points=[];" parent="PGyBlTvzSVpYLUktHaig-172" vertex="1" connectable="0">
          <mxGeometry x="-0.0129" relative="1" as="geometry">
            <mxPoint as="offset" />
          </mxGeometry>
        </mxCell>
        <mxCell id="PGyBlTvzSVpYLUktHaig-148" value="" style="rounded=1;whiteSpace=wrap;html=1;fillColor=#d5e8d4;strokeColor=#82b366;" parent="WIyWlLk6GJQsqaUBKTNV-1" vertex="1">
          <mxGeometry x="1156" y="1190" width="30" height="140" as="geometry" />
        </mxCell>
        <mxCell id="PGyBlTvzSVpYLUktHaig-149" value="" style="endArrow=none;dashed=1;html=1;strokeWidth=1;entryX=0.5;entryY=1;entryDx=0;entryDy=0;" parent="WIyWlLk6GJQsqaUBKTNV-1" target="PGyBlTvzSVpYLUktHaig-148" edge="1">
          <mxGeometry width="50" height="50" relative="1" as="geometry">
            <mxPoint x="1171" y="1390" as="sourcePoint" />
            <mxPoint x="1171" y="1000" as="targetPoint" />
          </mxGeometry>
        </mxCell>
        <mxCell id="PGyBlTvzSVpYLUktHaig-150" value="9、execute()" style="text;html=1;strokeColor=none;fillColor=none;align=center;verticalAlign=middle;whiteSpace=wrap;rounded=0;" parent="WIyWlLk6GJQsqaUBKTNV-1" vertex="1">
          <mxGeometry x="1209" y="1190" width="82.31" height="20" as="geometry" />
        </mxCell>
        <mxCell id="PGyBlTvzSVpYLUktHaig-151" value="ResultSetHandle" style="rounded=1;whiteSpace=wrap;html=1;fillColor=#ffe6cc;strokeColor=#d79b00;" parent="WIyWlLk6GJQsqaUBKTNV-1" vertex="1">
          <mxGeometry x="1301" y="970" width="150" height="30" as="geometry" />
        </mxCell>
        <mxCell id="PGyBlTvzSVpYLUktHaig-152" value="" style="endArrow=none;dashed=1;html=1;strokeWidth=1;entryX=0.5;entryY=1;entryDx=0;entryDy=0;" parent="WIyWlLk6GJQsqaUBKTNV-1" source="PGyBlTvzSVpYLUktHaig-154" edge="1">
          <mxGeometry width="50" height="50" relative="1" as="geometry">
            <mxPoint x="1381.0000000000002" y="1400" as="sourcePoint" />
            <mxPoint x="1381.0000000000005" y="1000" as="targetPoint" />
          </mxGeometry>
        </mxCell>
        <mxCell id="PGyBlTvzSVpYLUktHaig-168" style="edgeStyle=orthogonalEdgeStyle;rounded=0;orthogonalLoop=1;jettySize=auto;html=1;exitX=0;exitY=0.75;exitDx=0;exitDy=0;entryX=0.967;entryY=0.664;entryDx=0;entryDy=0;entryPerimeter=0;strokeWidth=1;dashed=1;" parent="WIyWlLk6GJQsqaUBKTNV-1" source="PGyBlTvzSVpYLUktHaig-154" target="PGyBlTvzSVpYLUktHaig-148" edge="1">
          <mxGeometry relative="1" as="geometry" />
        </mxCell>
        <mxCell id="PGyBlTvzSVpYLUktHaig-169" value="11、返回最终数据" style="edgeLabel;html=1;align=center;verticalAlign=middle;resizable=0;points=[];" parent="PGyBlTvzSVpYLUktHaig-168" vertex="1" connectable="0">
          <mxGeometry x="-0.0831" relative="1" as="geometry">
            <mxPoint x="-12.33" as="offset" />
          </mxGeometry>
        </mxCell>
        <mxCell id="PGyBlTvzSVpYLUktHaig-154" value="" style="rounded=1;whiteSpace=wrap;html=1;fillColor=#ffe6cc;strokeColor=#d79b00;" parent="WIyWlLk6GJQsqaUBKTNV-1" vertex="1">
          <mxGeometry x="1367" y="1200" width="30" height="110" as="geometry" />
        </mxCell>
        <mxCell id="PGyBlTvzSVpYLUktHaig-155" value="" style="endArrow=none;dashed=1;html=1;strokeWidth=1;entryX=0.5;entryY=1;entryDx=0;entryDy=0;" parent="WIyWlLk6GJQsqaUBKTNV-1" target="PGyBlTvzSVpYLUktHaig-154" edge="1">
          <mxGeometry width="50" height="50" relative="1" as="geometry">
            <mxPoint x="1382" y="1390" as="sourcePoint" />
            <mxPoint x="1381" y="1000" as="targetPoint" />
          </mxGeometry>
        </mxCell>
        <mxCell id="PGyBlTvzSVpYLUktHaig-159" value="3、查找crud方法" style="text;html=1;strokeColor=none;fillColor=none;align=center;verticalAlign=middle;whiteSpace=wrap;rounded=0;" parent="WIyWlLk6GJQsqaUBKTNV-1" vertex="1">
          <mxGeometry x="531" y="1070" width="110" height="20" as="geometry" />
        </mxCell>
        <mxCell id="PGyBlTvzSVpYLUktHaig-161" value="7、doQuery()" style="text;html=1;strokeColor=none;fillColor=none;align=center;verticalAlign=middle;whiteSpace=wrap;rounded=0;" parent="WIyWlLk6GJQsqaUBKTNV-1" vertex="1">
          <mxGeometry x="991" y="1170" width="90" height="20" as="geometry" />
        </mxCell>
        <mxCell id="PGyBlTvzSVpYLUktHaig-163" style="edgeStyle=orthogonalEdgeStyle;rounded=1;orthogonalLoop=1;jettySize=auto;html=1;exitX=1.011;exitY=0.146;exitDx=0;exitDy=0;strokeWidth=1;exitPerimeter=0;" parent="WIyWlLk6GJQsqaUBKTNV-1" source="PGyBlTvzSVpYLUktHaig-148" edge="1">
          <mxGeometry relative="1" as="geometry">
            <mxPoint x="1186" y="1230" as="targetPoint" />
            <Array as="points">
              <mxPoint x="1206" y="1210" />
              <mxPoint x="1206" y="1230" />
            </Array>
          </mxGeometry>
        </mxCell>
        <mxCell id="OajghMgm2F908nDoyd-L-0" value="&lt;div&gt;使用端：（项目）引入自定义持久层框架的jar包&lt;/div&gt;&lt;div&gt;&amp;nbsp; &amp;nbsp; 提供两部分配置信息：数据库配置信息、sql配置信息：sql语句、参数类型、返回值类型&lt;/div&gt;&lt;div&gt;&amp;nbsp; &amp;nbsp; 使用配置文件来提供这两部分配置信息：&lt;/div&gt;&lt;div&gt;&lt;span&gt; &lt;/span&gt;（1） sqlMapConfig.xml:存放数据库配置信息，存放Mapper.xml的全路径&lt;/div&gt;&lt;div&gt;&lt;span&gt; &lt;/span&gt;（2） mapper.xml:存放sql配置信息&lt;/div&gt;&lt;div&gt;&lt;br&gt;&lt;/div&gt;&lt;div&gt;自定义吃就成框架本身：（工程）：本质就是对JDBC代码进行了封装&lt;/div&gt;&lt;div&gt;&amp;nbsp; &amp;nbsp; （1）加载配置文件：根据配置文件的路径，加载配置文件成字节输入流，存储在内存中&lt;/div&gt;&lt;div&gt;&lt;span&gt;  &lt;/span&gt;创建Resources类&amp;nbsp; 方法：inputSteam getResourceAsSteam(String path)&lt;/div&gt;&lt;div&gt;&lt;br&gt;&lt;/div&gt;&lt;div&gt;&lt;span&gt; &lt;/span&gt;（2）创建两个JavaBean：（容器对象）：存在的就是对配置文件解析出来的内容&lt;/div&gt;&lt;div&gt;&lt;span&gt;  &lt;/span&gt;Configuration:核心配置类：存放sqlMapConfig.xml解析出来的内容&lt;/div&gt;&lt;div&gt;&lt;span&gt;  &lt;/span&gt;MapperStatement:映射配置类：存放mappper.xml解析出来的内容&lt;/div&gt;&lt;div&gt;&lt;br&gt;&lt;/div&gt;&lt;div&gt;&lt;span&gt; &lt;/span&gt;（3）解析配置文件：dom4j&lt;/div&gt;&lt;div&gt;&amp;nbsp; &amp;nbsp; &amp;nbsp; &amp;nbsp; 创建类：SqlSessionFactoryBuilder 方法：build(InputSteam in)&lt;/div&gt;&lt;div&gt;&lt;span&gt;  &lt;/span&gt;第一：使用dom4j解析配置文件，将解析出来的内容封装到容器对象中&lt;/div&gt;&lt;div&gt;&lt;span&gt;  &lt;/span&gt;第二：创建SqlSessionFactory对象；生产sqlSession:回话对象（工厂模式）&lt;/div&gt;&lt;div&gt;&lt;span&gt;  &lt;/span&gt;&lt;/div&gt;&lt;div&gt;&lt;span&gt; &lt;/span&gt;（4）创建 SqlSessionFactory 接口及实现类 DefaultSqlSessionFactory&lt;/div&gt;&lt;div&gt;&lt;span&gt;  &lt;/span&gt;第一：openSession(); 生产sqlSession&lt;/div&gt;&lt;div&gt;&lt;span&gt;  &lt;/span&gt;&lt;/div&gt;&lt;div&gt;&lt;span&gt; &lt;/span&gt;（5）创建 SqlSession 接口及实现类 DefaultSession&lt;/div&gt;&lt;div&gt;&lt;span&gt;  &lt;/span&gt;定义对数据库的crud操作，selectList()/selectOne()/update()/delete()&lt;/div&gt;&lt;div&gt;&lt;span&gt;  &lt;/span&gt;&lt;/div&gt;&lt;div&gt;&lt;span&gt; &lt;/span&gt;（6）创建 Executor 接口以及实现类 SimpleExecutor 实现类&lt;/div&gt;&lt;div&gt;&lt;span&gt;  &lt;/span&gt;query(Configuration,MapperStatement,Object... params):执行的就是JDBC代码&lt;/div&gt;" style="text;html=1;strokeColor=#d6b656;fillColor=#fff2cc;align=left;verticalAlign=top;whiteSpace=wrap;rounded=0;" parent="WIyWlLk6GJQsqaUBKTNV-1" vertex="1">
          <mxGeometry x="1298" y="82" width="530" height="390" as="geometry" />
        </mxCell>
        <mxCell id="ykeuOGGJM7bTIXkUnROB-0" value="&lt;pre style=&quot;background-color: rgb(255 , 255 , 255) ; font-family: &amp;#34;jetbrains mono&amp;#34; , monospace ; font-size: 9pt&quot;&gt;1.读取配置文件，读取成字节输入流，注意：现在还没解析&lt;/pre&gt;&lt;pre style=&quot;background-color: rgb(255 , 255 , 255) ; font-family: &amp;#34;jetbrains mono&amp;#34; , monospace ; font-size: 9pt&quot;&gt;InputStream resourcesAsSteam = Resources.&lt;span style=&quot;font-style: italic&quot;&gt;getResourceAsStream&lt;/span&gt;(&lt;span style=&quot;color: #008000 ; font-weight: bold&quot;&gt;&quot;sqlMapConfig.xml&quot;&lt;/span&gt;);&lt;/pre&gt;&lt;pre style=&quot;background-color: rgb(255 , 255 , 255) ; font-family: &amp;#34;jetbrains mono&amp;#34; , monospace ; font-size: 9pt&quot;&gt;2.解析配置文件，封装 Configuration 对象 创建 DefaultSqlSessionFactory 对象&lt;/pre&gt;&lt;pre style=&quot;background-color: rgb(255 , 255 , 255) ; font-family: &amp;#34;jetbrains mono&amp;#34; , monospace ; font-size: 9pt&quot;&gt;&lt;pre style=&quot;font-family: &amp;#34;jetbrains mono&amp;#34; , monospace ; font-size: 9pt&quot;&gt;SqlSessionFactory sqlSessionFactory = &lt;span style=&quot;color: #000080 ; font-weight: bold&quot;&gt;new &lt;/span&gt;SqlSessionFactoryBuilder().build(resourcesAsSteam);&lt;/pre&gt;&lt;pre style=&quot;font-family: &amp;#34;jetbrains mono&amp;#34; , monospace ; font-size: 9pt&quot;&gt;3.生产了 DefaultSqlSession 实例对象，同时设置了事务不自动提交 完成了 executor 对象的创建&lt;/pre&gt;&lt;pre style=&quot;font-family: &amp;#34;jetbrains mono&amp;#34; , monospace ; font-size: 9pt&quot;&gt;&lt;pre style=&quot;font-family: &amp;#34;jetbrains mono&amp;#34; , monospace ; font-size: 9pt&quot;&gt;SqlSession sqlSession = sqlSessionFactory.openSession();&lt;/pre&gt;&lt;/pre&gt;&lt;/pre&gt;" style="rounded=1;whiteSpace=wrap;html=1;align=left;" vertex="1" parent="WIyWlLk6GJQsqaUBKTNV-1">
          <mxGeometry x="568" y="-244" width="685" height="184" as="geometry" />
        </mxCell>
      </root>
    </mxGraphModel>
  </diagram>
</mxfile>
